<svg width="24" height="24" viewBox="0 0 24 24" fill="none" xmlns="http://www.w3.org/2000/svg">
<path d="M5 23.7C4.45 23.7 3.979 23.504 3.587 23.112C3.19567 22.7207 3 22.25 3 21.7V7.69999C3 7.14999 3.19567 6.67899 3.587 6.28699C3.979 5.89565 4.45 5.69999 5 5.69999H13.925L11.925 7.69999H5V21.7H19V14.75L21 12.75V21.7C21 22.25 20.8043 22.7207 20.413 23.112C20.021 23.504 19.55 23.7 19 23.7H5ZM16.175 6.27499L17.6 7.67499L11 14.275V15.7H12.4L19.025 9.07499L20.45 10.475L13.825 17.1C13.6417 17.2833 13.4293 17.4293 13.188 17.538C12.946 17.646 12.6917 17.7 12.425 17.7H10C9.71667 17.7 9.47933 17.6043 9.288 17.413C9.096 17.221 9 16.9833 9 16.7V14.275C9 14.0083 9.05 13.754 9.15 13.512C9.25 13.2707 9.39167 13.0583 9.575 12.875L16.175 6.27499ZM20.45 10.475L16.175 6.27499L18.675 3.77499C19.075 3.37499 19.5543 3.17499 20.113 3.17499C20.671 3.17499 21.1417 3.37499 21.525 3.77499L22.925 5.19999C23.3083 5.58332 23.5 6.04999 23.5 6.59999C23.5 7.14999 23.3083 7.61665 22.925 7.99999L20.45 10.475Z" fill="#2C2C2C"/>
</svg>
