<svg width="20" height="20" viewBox="0 0 20 20" fill="none" xmlns="http://www.w3.org/2000/svg">
<path d="M4.16667 19.75C3.70833 19.75 3.31583 19.5867 2.98917 19.26C2.66306 18.9339 2.5 18.5417 2.5 18.0833V6.41667C2.5 5.95834 2.66306 5.56584 2.98917 5.23917C3.31583 4.91306 3.70833 4.75 4.16667 4.75H11.6042L9.9375 6.41667H4.16667V18.0833H15.8333V12.2917L17.5 10.625V18.0833C17.5 18.5417 17.3369 18.9339 17.0108 19.26C16.6842 19.5867 16.2917 19.75 15.8333 19.75H4.16667ZM13.4792 5.22917L14.6667 6.39584L9.16667 11.8958V13.0833H10.3333L15.8542 7.5625L17.0417 8.72917L11.5208 14.25C11.3681 14.4028 11.1911 14.5244 10.99 14.615C10.7883 14.705 10.5764 14.75 10.3542 14.75H8.33333C8.09722 14.75 7.89944 14.6703 7.74 14.5108C7.58 14.3508 7.5 14.1528 7.5 13.9167V11.8958C7.5 11.6736 7.54167 11.4617 7.625 11.26C7.70833 11.0589 7.82639 10.8819 7.97917 10.7292L13.4792 5.22917ZM17.0417 8.72917L13.4792 5.22917L15.5625 3.14584C15.8958 2.8125 16.2953 2.64584 16.7608 2.64584C17.2258 2.64584 17.6181 2.8125 17.9375 3.14584L19.1042 4.33334C19.4236 4.65278 19.5833 5.04167 19.5833 5.5C19.5833 5.95834 19.4236 6.34722 19.1042 6.66667L17.0417 8.72917Z" fill="#D4AB6A"/>
</svg>
